<?xml version="1.0" encoding="utf-8"?><svg xmlns="http://www.w3.org/2000/svg" xmlns:xlink="http://www.w3.org/1999/xlink"><symbol viewBox="0 0 24 28" id="arrow-circle-down"><path d="M20.062 14.016q0-.422-.281-.703l-1.422-1.422q-.281-.281-.703-.281t-.703.281L14 14.844V7q0-.406-.297-.703T13 6h-2q-.406 0-.703.297T10 7v7.844l-2.953-2.953q-.297-.297-.703-.297t-.703.297l-1.422 1.422q-.281.281-.281.703t.281.703l7.078 7.078q.281.281.703.281t.703-.281l7.078-7.078q.281-.281.281-.703zM24 14q0 3.266-1.609 6.023t-4.367 4.367-6.023 1.609-6.023-1.609-4.367-4.367T.002 14t1.609-6.023T5.978 3.61t6.023-1.609 6.023 1.609 4.367 4.367T24 14z"/></symbol><symbol viewBox="0 0 24 28" id="arrow-circle-up"><path d="M20.062 13.984q0-.422-.281-.703l-7.078-7.078q-.281-.281-.703-.281t-.703.281l-7.078 7.078q-.281.281-.281.703t.281.703l1.422 1.422q.281.281.703.281t.703-.281L10 13.156V21q0 .406.297.703T11 22h2q.406 0 .703-.297T14 21v-7.844l2.953 2.953q.297.297.703.297t.703-.297l1.422-1.422q.281-.281.281-.703zM24 14q0 3.266-1.609 6.023t-4.367 4.367-6.023 1.609-6.023-1.609-4.367-4.367T.002 14t1.609-6.023T5.978 3.61t6.023-1.609 6.023 1.609 4.367 4.367T24 14z"/></symbol><symbol viewBox="0 0 24 28" id="bars"><path d="M24 21v2q0 .406-.297.703T23 24H1q-.406 0-.703-.297T0 23v-2q0-.406.297-.703T1 20h22q.406 0 .703.297T24 21zm0-8v2q0 .406-.297.703T23 16H1q-.406 0-.703-.297T0 15v-2q0-.406.297-.703T1 12h22q.406 0 .703.297T24 13zm0-8v2q0 .406-.297.703T23 8H1q-.406 0-.703-.297T0 7V5q0-.406.297-.703T1 4h22q.406 0 .703.297T24 5z"/></symbol></svg>